<?xml version="1.0" encoding="utf-8"?>
<!-- Generator: Adobe Illustrator 27.0.0, SVG Export Plug-In . SVG Version: 6.00 Build 0)  -->
<svg version="1.1" id="Layer_2" xmlns="http://www.w3.org/2000/svg" xmlns:xlink="http://www.w3.org/1999/xlink" x="0px" y="0px"
	 viewBox="0 0 262 254.9" style="enable-background:new 0 0 262 254.9;" xml:space="preserve">
<path d="M259.4,94.2c-9-27.8-38.9-43.1-66.8-34c-3.2,1-6.2,2.4-9.1,3.9c0.8-3.6,1.2-7.3,1.2-11.1c0-29.3-23.7-53-53-53
	c-29.3,0-53,23.7-53,53c0,3.4,0.3,6.7,0.9,9.9c-3.2-1.8-6.6-3.4-10.2-4.6c-27.8-9-57.7,6.2-66.8,34c-9,27.8,6.2,57.7,34,66.8
	c3.2,1,6.4,1.7,9.7,2.2c-2.7,2.5-5.3,5.2-7.5,8.3c-17.2,23.7-12,56.8,11.7,74c23.7,17.2,56.8,12,74-11.7c2-2.7,3.7-5.6,5-8.5
	c1.5,3.4,3.3,6.6,5.6,9.7c17.2,23.7,50.3,28.9,74,11.7c23.7-17.2,28.9-50.3,11.7-74c-2-2.7-4.2-5.2-6.6-7.4c3.7-0.4,7.3-1.1,11-2.3
	C253.2,152,268.4,122.1,259.4,94.2z M131,184.2c-6.6-36-12-41.4-48-48c36-6.6,41.4-12,48-48c6.6,36,12,41.4,48,48
	C143,142.9,137.6,148.2,131,184.2z"/>
</svg>
