<?xml version="1.0" encoding="utf-8"?>
<!-- Generator: Adobe Illustrator 27.0.0, SVG Export Plug-In . SVG Version: 6.00 Build 0)  -->
<svg version="1.1" xmlns="http://www.w3.org/2000/svg" xmlns:xlink="http://www.w3.org/1999/xlink" x="0px" y="0px"
	 viewBox="0 0 99.3 24.8" style="enable-background:new 0 0 99.3 24.8;" xml:space="preserve">
<style type="text/css">
	.st0{display:none;}
	.st1{display:inline;}
</style>
<g id="Layer_1" class="st0">
	<g class="st1">
		<path d="M29.3,21c-2,2.7-7.6,4.2-13.5-2.3l-3.3-3.7l-2.8-3c-0.3-0.2-0.1-0.5,0.5-0.4c3.7,0.2,6.7-1.5,6.7-4.4c0-2.8-1.9-4-4.4-4
			l-5.4,0c-0.4,0-0.9,0-1.2,0C2.2,3.3,0.1,5.5,0.4,8.7c0,0.1-0.2,0.3-0.3,0c-0.8-3.5,1.6-6.5,6.5-6.5h5.8c2.8,0,6.5,1.1,6.5,4.9
			c0,2.3-2,4.6-4.9,5c-0.6,0.1-1.1,0.1-1.6,0.1l1.7,1.8l3.1,3.3c4.5,4.5,6.7,6,11.9,3.4C29.3,20.6,29.6,20.7,29.3,21z M10.3,19.5
			c0,0.2-0.2,0.2-0.5,0.2H6.2c-0.3,0-0.5-0.1-0.5-0.3c0-0.1,0.1-0.2,0.3-0.2h1.3c0,0-0.6-0.1-0.7-1c0,0,0-1,0-2.5
			c0-4.1,0-11.4,0-11.4c0-0.3,0-0.5-0.1-0.7h1.3c0,0,0.6,0.2,0.7,1c0,0.1,0,9.8,0,10.8V18c0,1.1,0.8,1.3,1.6,1.4
			C10.3,19.3,10.3,19.4,10.3,19.5z"/>
		<path d="M23.7,18.9c0-0.6,0.4-1.1,1-1.1c0.6,0,1,0.4,1,1.1c0,0.6-0.4,1.1-1,1.1C24.1,20,23.7,19.5,23.7,18.9z"/>
		<path d="M48.6,17.6c0,0.2-0.2,0.2-0.6,0.2h-4.5c-0.3,0-0.4,0-0.4-0.2c0-0.1,0-0.2,0.3-0.2h1.3c0,0-0.4-0.1-0.8-0.9
			c0-0.1-0.6-1.6-1.3-3.6h-7.5L34.5,14c-3.5,9.1-9.6,10.7-12.7,8c-0.4-0.3-0.1-0.4,0.1-0.3c5.2,1.7,8.2-1.8,11-8.3l3-7.4
			c1.9-4.9,4.6-7.3,7.8-5.2c0.2,0.2,0.1,0.4-0.1,0.3c-0.8-0.4-1.6-0.5-2.3-0.2l-1.2,0.8C40,1.9,39.9,2,39.8,2.1l5.4,12.5
			c0.6,1.4,1.3,2.6,2.7,2.7C48,17.3,48.6,17.3,48.6,17.6z M42.2,12.2c-1.3-3.4-2.8-7.7-3.3-8.9c-0.4,0.6-0.8,1.5-1.2,2.4l-2.6,6.5
			H42.2z"/>
	</g>
</g>
<g id="Layer_2">
	<g>
		<path d="M32.3,17.4c0,0.1-0.5,1.4-0.8,1.9c-0.2,0.2-0.6,0.5-1.8,0.4c-1.7,0-4.8-0.1-4.9-0.1c-0.3,0-1.1,0-1.7,0.1
			c-0.2,0-0.4,0-0.4-0.1c0-0.1,0-0.1,0.1-0.1l1.2-0.1c0,0-0.5-0.1-0.6-0.8V7.9c0-0.7-0.7-1-1.1-1l-0.2,0C22,6.9,22,6.8,22,6.7
			c0-0.1,0.2-0.1,0.4-0.1h8c0.7,0,0.9,0.5,0.9,0.5l0-0.6c0-0.1,0-0.2,0.2-0.2c0.2,0,0.2,0.1,0.2,0.4c0,0,0,2.1,0.1,2.3
			c0,0.2,0,0.3-0.1,0.3c-0.1,0-0.2-0.1-0.2-0.3c-0.1-0.6-0.8-1.7-2-1.7c-1.6-0.1-3.1,0-4.8,0.1c0,0,0.5,0.1,0.6,0.8c0,0,0,2.3,0,4.6
			c1.2,0,2.4,0,3.6,0c0.7,0,0.9,0.5,0.9,0.5l0-0.6c0-0.1,0.1-0.2,0.2-0.2c0.1,0,0.2,0.2,0.2,0.4c0,0,0,2.1,0,2.3
			c0,0.2,0,0.3-0.1,0.3c-0.1,0-0.2-0.1-0.2-0.3c-0.1-0.6-0.7-1.7-2-1.8c-0.8-0.1-1.6-0.1-2.5-0.1c0,2.1,0,4,0,4
			c0,1.2,0.2,1.7,1.8,1.8c0.1,0,2.3,0,2.9,0c0.4,0,0.8-0.1,1.3-0.5c0.4-0.3,0.8-0.9,0.9-1.2c0.1-0.2,0.1-0.2,0.2-0.2
			C32.3,17.2,32.3,17.4,32.3,17.4z"/>
		<path d="M50.9,6.8c0,0.1-0.1,0.2-0.2,0.2c-1.4,0-2.1,1.1-2.6,2L44,17.8c0,0-0.5,0.9-0.8,1.8c-0.1,0.2-0.2,0.2-0.3,0L37.7,9
			c-0.7-1.4-0.9-1.7-2.6-2c-0.1,0-0.2-0.1-0.2-0.2s0.2-0.1,0.4-0.2h3.8c0.2,0,0.4,0.1,0.4,0.2c0,0.1,0,0.2-0.2,0.2h-1.1
			c0,0,0.4,0.1,0.7,0.7c0.1,0.2,4.2,10,4.2,10s4.5-9.8,4.6-10C48.1,7.1,48.4,7,48.4,7h-1.1C47.1,7,47,6.9,47,6.8
			c0-0.1,0.2-0.2,0.4-0.2h3C50.8,6.7,50.9,6.7,50.9,6.8z"/>
		<path d="M62.3,17.5c0,0.1-0.5,1.4-0.8,1.9c-0.2,0.2-0.6,0.5-1.8,0.4c-1.7,0-4.8-0.1-4.9-0.1c-0.3,0-1.1,0-1.7,0.1
			c-0.2,0-0.4,0-0.4-0.1c0-0.1,0-0.1,0.1-0.1l1.2-0.1c0,0-0.5-0.1-0.6-0.8V7.9c0-0.7-0.7-1-1.1-1l-0.2,0C52,6.9,52,6.9,52,6.8
			c0-0.1,0.2-0.1,0.4-0.1h8c0.7,0,0.9,0.5,0.9,0.5l0-0.6c0-0.1,0-0.2,0.2-0.2c0.2,0,0.2,0.1,0.2,0.4c0,0,0,2,0.1,2.3
			c0,0.2,0,0.3-0.1,0.3c-0.1,0-0.2-0.1-0.2-0.3c-0.1-0.6-0.8-1.7-2-1.7c-1.6-0.1-3.1,0-4.8,0.1c0,0,0.5,0.1,0.6,0.8c0,0,0,2.3,0,4.6
			c1.2,0,2.4,0,3.6,0c0.7,0,0.9,0.5,0.9,0.5l0-0.6c0-0.1,0.1-0.2,0.2-0.2c0.1,0,0.2,0.2,0.2,0.4c0,0,0,2,0,2.3c0,0.2,0,0.3-0.1,0.3
			c-0.1,0-0.2-0.1-0.2-0.3c-0.1-0.6-0.7-1.7-2-1.8c-0.8-0.1-1.6-0.1-2.5-0.1c0,2,0,3.9,0,3.9c0,1.2,0.2,1.7,1.8,1.8
			c0.1,0,2.3,0,2.9,0c0.4,0,0.8-0.1,1.3-0.5c0.4-0.3,0.8-0.9,0.9-1.2c0.1-0.2,0.1-0.2,0.2-0.2C62.3,17.2,62.3,17.4,62.3,17.5z"/>
		<path d="M77.3,19.6c0,0.1-0.1,0.2-0.3,0.2h-0.9c-0.7,0-2.5,0-3.6-1.2c-1.1-1.3-2.8-3.5-5-4.5v0c-0.3-0.1-0.2-0.4,0.3-0.4
			c3.1,0.2,5.2-1.1,5.2-3.3c0-2.1-1.6-3-3.7-3c0,0-0.9,0-1.1,0c-0.1,0-0.2,0-2.4,0.1c0,0,0.5,0.1,0.5,0.8c0,0.1,0,10.3,0,10.3
			c0,0.8,0.7,0.9,1.4,1c0.2,0,0.2,0.1,0.2,0.2c0,0.1-0.2,0.1-0.4,0.1h-3.1c-0.3,0-0.4-0.1-0.4-0.2c0-0.1,0.1-0.2,0.3-0.2h1
			c0,0-0.5-0.1-0.6-0.8c0,0,0-10.7,0-10.7c0-0.7-0.7-1-1.4-1c-0.2,0-0.2-0.1-0.2-0.2s0.2-0.1,0.4-0.1h5.6c2.4,0,5.4,0.8,5.4,3.7
			c0,1.8-1.2,3.4-3.6,3.7c-0.5,0.1-0.9,0.1-1.4,0.1c1.7,0.9,4,3.3,5.1,4.4c0.3,0.4,1,0.8,1.9,0.8l0.2,0
			C77.3,19.5,77.3,19.6,77.3,19.6z"/>
	</g>
	<path d="M99.2,17.6c0,0.2-0.2,0.2-0.6,0.2H94c-0.3,0-0.4,0-0.4-0.2c0-0.1,0-0.2,0.3-0.2h1.3c0,0-0.4-0.1-0.8-0.9
		c0-0.1-0.6-1.6-1.3-3.6h-7.5L85.1,14c-3.5,9.1-9.6,10.7-12.7,8c-0.4-0.3-0.1-0.4,0.1-0.3c5.2,1.7,8.2-1.8,11-8.3l3-7.4
		c1.9-4.9,4.6-7.3,7.8-5.2c0.2,0.2,0.1,0.4-0.1,0.3c-0.8-0.4-1.6-0.5-2.3-0.2l-1.2,0.8c-0.1,0.1-0.2,0.2-0.3,0.3l5.4,12.5
		c0.6,1.4,1.3,2.6,2.7,2.7C98.6,17.3,99.2,17.3,99.2,17.6z M92.8,12.2c-1.3-3.4-2.8-7.7-3.3-8.9c-0.4,0.6-0.8,1.5-1.2,2.4l-2.6,6.5
		H92.8z"/>
	<g>
		<path d="M35,18.9c1-0.3,1.2-0.5,1.5-1.6c0.3,1.1,0.5,1.3,1.5,1.6c-1,0.3-1.2,0.5-1.5,1.6C36.2,19.4,36,19.2,35,18.9z"/>
	</g>
	<path d="M29.3,21c-2.5,2.6-7.6,4.2-13.5-2.3l-3.3-3.7l-2.8-3c-0.3-0.2-0.1-0.5,0.5-0.4c3.7,0.2,6.7-1.5,6.7-4.4c0-2.8-1.9-4-4.4-4
		l-5.4,0c-0.4,0-0.9,0-1.2,0C2.2,3.3,0.1,5.5,0.4,8.7c0,0.1-0.2,0.3-0.3,0c-0.8-3.5,1.6-6.5,6.5-6.5h5.8c2.8,0,6.5,1.1,6.5,4.9
		c0,2.3-2,4.6-4.9,5c-0.6,0.1-1.1,0.1-1.6,0.1l1.7,1.8l3.1,3.3c4.5,4.5,8.4,6.3,11.9,3.4C29.3,20.6,29.6,20.7,29.3,21z M10.3,19.5
		c0,0.2-0.2,0.2-0.5,0.2H6.2c-0.3,0-0.5-0.1-0.5-0.3c0-0.1,0.1-0.2,0.3-0.2h1.3c0,0-0.6-0.1-0.7-1c0,0,0-1,0-2.5
		c0-4.1,0-11.4,0-11.4c0-0.3,0-0.5-0.1-0.7h1.3c0,0,0.6,0.2,0.7,1c0,0.1,0,9.8,0,10.8V18c0,1.1,0.8,1.3,1.6,1.4
		C10.3,19.3,10.3,19.4,10.3,19.5z"/>
</g>
</svg>
