<svg version="1.1" id="Layer_1" xmlns="http://www.w3.org/2000/svg" xmlns:xlink="http://www.w3.org/1999/xlink" x="0px" y="0px"
	 viewBox="0 0 102.8 24.3" style="enable-background:new 0 0 102.8 24.3;" xml:space="preserve">
<style type="text/css">
	.st0{fill:#BE1E2D;}
</style>
<g>
	<path d="M10.3,6c0,3.8,0.4,6.8,1.2,8.8c0.8,2,1.9,3.2,3.4,3.8L13,23.4c-1-0.2-2-0.6-2.9-1.4c-1-0.8-1.8-1.8-2.6-3.2
		c-0.8,1.3-1.7,2.4-2.7,3.2c-1,0.8-2,1.3-2.9,1.4L0,18.6c1.5-0.5,2.6-1.8,3.4-3.8c0.8-2,1.2-4.9,1.2-8.8V0.3h5.7V6z M24.8,9.6h-2.4
		v4.8h2.4v4.8h-2.4v5.1h-6V0h6v4.8h2.4V9.6z"/>
	<path d="M49.8,23.4H26.7v-4.8h23.1V23.4z M27.4,14.7V0.3h6v2.4h9.8V0.3h6v14.4H27.4z M43.2,7.5h-9.8v2.4h9.8V7.5z"/>
	<path d="M63.3,6c0,3.8,0.4,6.8,1.2,8.8c0.8,2,1.9,3.2,3.4,3.8L66,23.4c-1-0.2-2-0.6-2.9-1.4c-1-0.8-1.8-1.8-2.6-3.2
		c-0.8,1.3-1.7,2.4-2.7,3.2c-1,0.8-2,1.3-2.9,1.4L53,18.6c1.5-0.5,2.6-1.8,3.4-3.8c0.8-2,1.2-4.9,1.2-8.8V0.3h5.7V6z M77.8,9.6h-2.4
		v4.8h2.4v4.8h-2.4v5.1h-6V0h6v4.8h2.4V9.6z"/>
	<path d="M102.8,23.4H79.7v-4.8h23.1V23.4z M80.4,14.7V0.3h6v2.4h9.8V0.3h6v14.4H80.4z M96.2,7.5h-9.8v2.4h9.8V7.5z"/>
</g>
<ellipse class="st0" cx="51.4" cy="12.2" rx="19.9" ry="8"/>
</svg>
