<?xml version="1.0" encoding="utf-8"?>
<!-- Generator: Adobe Illustrator 27.0.0, SVG Export Plug-In . SVG Version: 6.00 Build 0)  -->
<svg version="1.1" id="logo_x5F_layer" xmlns="http://www.w3.org/2000/svg" xmlns:xlink="http://www.w3.org/1999/xlink" x="0px"
	 y="0px" viewBox="0 0 411.3 117.3" style="enable-background:new 0 0 411.3 117.3;" xml:space="preserve">
<style type="text/css">
	.st0{fill:#FFFFFF;stroke:#000000;stroke-width:3;stroke-miterlimit:10;}
	.st1{fill:#FFFFFF;}
	.st2{fill:none;stroke:#000000;stroke-width:3;stroke-miterlimit:10;}
</style>
<g id="logo">
	<path id="bg02_00000034808159210907337510000015028684338845115024_" class="st0" d="M409.4,77.6c7.6,49.9-91.1,32.5-203.5,32.5
		S-9.3,135.9,2.4,77.6c7.1-35.5,91.1-46.5,203.5-46.5S403.6,39.1,409.4,77.6z"/>
	<path id="bg01_00000029033069613998486260000006197262532924627351_" class="st0" d="M399.9,76.6c7.2,38.7-86.8,25.2-194,25.2
		s-205.2,20-194-25.2c6.8-27.5,86.8-36.1,194-36.1S394.3,46.8,399.9,76.6z"/>
	<g id="obj_00000025415451211012982370000017256143003290517391_">
		<path class="st1" d="M153.3,13.4c7.5,9,0.2,16.2-8.8,8.8c-9,7.5-16.2,0.2-8.8-8.8c-7.5-9-0.2-16.2,8.8-8.8
			C153.6-2.9,160.8,4.4,153.3,13.4z"/>
		<path class="st2" d="M153.3,13.4c7.5,9,0.2,16.2-8.8,8.8c-9,7.5-16.2,0.2-8.8-8.8c-7.5-9-0.2-16.2,8.8-8.8
			C153.6-2.9,160.8,4.4,153.3,13.4z"/>
	</g>
	<path id="text_x5F_bg" d="M385.7,46L385.7,46c-0.2-0.8-0.2-1.6-0.2-2.5c0-0.6-0.1-1.4-0.3-2.3c-0.2-0.9-0.6-1.7-1.2-2.3
		c-0.5-0.8-2.3-4-2.4-4.1c-0.6-1-1.2-1.7-1.9-2.3c-0.5-0.5-1-0.9-1.4-1.4c-0.4-0.4-0.8-0.8-1.2-1.2c-1.8-1.7-3.6-3.5-5.3-5.1
		c-1.6-1.5-3.3-3-4.8-4.4c-0.3-0.3-0.6-0.6-1-0.9c-1.2-1.2-2.7-2.5-4.4-3.2c-8.4-3.4-17.2-3.6-24.8-3.4c-0.8,0-1.6,0-2.4,0
		c-3.9,0-8.3-0.1-11.6,1.8c-2.9,1.7-4.3,3.1-4.5,4.7c-0.1,0.5-0.1,1.1-0.1,1.8c0,1.4-0.2,4-0.5,7.5c-0.3,3-0.4,4.9-0.4,5.4
		c0,0.6,0,1.1,0.2,1.7c0.1,0.5,0.1,0.9,0.1,1.2c0,1.7,0,3.5-0.3,5.6c-0.2,1.9-0.3,3.5-0.3,5.2c0,1.3,0.1,2.7,0.2,4.1
		c0.1,1.6,0.2,3.2,0.2,4.8c0,1,0,2.1-0.1,3.5c-0.1,1-0.1,2.1-0.1,3.3c-0.3-1-0.7-2-0.9-3.1c-2.4-8.2-4.9-16.5-7.6-24.6
		c-1.1-3.5-3.4-5.4-5.8-7.5c-0.5-0.4-1-0.8-1.4-1.3c-0.7-0.6-1.3-1.3-2-1.9c-1.4-1.4-2.9-2.8-4.5-4c-2.3-1.7-4.9-1.7-7.3-1.7h-0.4
		l-1.8,0c-2.8,0-5.7,0-8.5,0c-2.2,0-4,0.6-5.2,1.8c-1.3,1.2-1.9,2.9-2.3,4.3c-0.5,1.5-0.9,3-1.4,4.5c-0.9,2.9-1.8,5.9-2.8,8.8
		c-1.5,4.6-2.2,6.8-2.4,7.6c-0.1,0.6-0.3,1.5-0.8,2.7c-0.5-1.7-1.1-2.9-1.8-3.8c-0.4-0.5-0.7-1.1-0.8-1.6c-0.4-1.8-1.5-3.6-3.2-5.6
		c-0.4-0.5-0.9-1-1.5-1.5l-0.4-0.4c-2.3-2.1-4.6-4.2-6.9-6.3l-0.2-0.2c-3.7-3.3-7.3-5.9-11.4-8.3c-2.1-1.2-4.3-1.6-6.5-1.9
		c-0.5-0.1-1-0.2-1.5-0.3c-2.6-0.5-6-1-9.5-0.4c-1.5,0.2-2.9,0.6-4.1,1c-1.5,0.5-3.1,1.3-4.7,2.2c-3.9,2.4-6.7,5.2-9.6,8.8
		c-0.7,0.5-1.2,1.2-1.5,2.1c-0.4,1-0.8,1.8-1.2,2.6c-0.8,1.7-1.4,3.2-1.8,4.6c-0.1,0-0.1-0.1-0.2-0.1c-0.1-0.1-0.2-0.2-0.3-0.2
		l-3-2.7c-0.7-0.6-1.4-1.3-2.1-2c-2-2-4.1-4-6.6-5.3c-0.9-0.5-2-0.9-3-1.1c-12.2-5.7-26.2-1-35.7,12c-0.1,0.1-0.1,0.2-0.2,0.3
		c-1.9-2.7-4.2-4.9-6.5-7.1l-1.5-1.4c-4.9-4.8-10-9.7-16.5-12.1c-11.5-4.2-23.9-1.3-31.2,7.2c-0.5-1.1-1.2-2.3-2.1-3.4
		C85,23,84,21.8,83,20.7c-1.4-1.5-3-2.9-4.6-4.3c-0.8-0.6-1.5-1.3-2.2-1.9c-0.4-0.4-0.9-0.8-1.3-1.2c-1.4-1.3-2.8-2.7-4.6-3.7
		c-0.5-0.3-1.1-0.5-1.6-0.7c-0.5-0.2-0.9-0.4-1.3-0.6c-0.4-0.3-0.8-0.6-1.2-1c-0.5-0.4-1-0.9-1.6-1.3c-1.4-0.9-3.1-1.3-4.5-1.6
		c-2.4-0.5-5-1-7.5-1.2c-3.9-0.3-7.8,0.1-11.6,0.5c-0.7,0.1-1.3,0.1-1.9,0.2C37.8,3.9,36.4,4,35,4.1c-3,0.2-6,0.4-9.1,1
		c-2.1,0.4-4.6,1-6.7,2.4c-2.9,2.1-4.1,5.7-3.4,10.9c0.1,1.2,0.3,2.5,0.4,3.8c0.3,3.3,0.7,6.6,1.3,9.9c0.8,4.3,1.4,8.9,1.7,13.6
		c0.5,6,1.1,11,2.1,15.7c0.4,2,0.8,4.1,1.1,6.5c0.2,1.2,0.4,2.3,0.5,3.5L23,72c0.2,1.5,0.8,2.7,1.5,3.7c0.7,1.6,2.1,2.8,3.5,3.8
		c0.4,0.3,0.8,0.6,1.1,1l5,4.6c1,1,2.2,2,3.6,2.7c2.3,1,4.4,0.8,6.4,0.5c0.5-0.1,1-0.1,1.5-0.2c0.7-0.1,1.5-0.1,2.2-0.1
		c1.7-0.1,3.4-0.2,5.2-0.5c1.5-0.3,2.9-0.9,4-1.7c1.3-0.8,2.3-1.8,3.2-3c1.5-2.4,1.6-4.1,0.5-6.6c-1-2-1.6-4.2-1.8-6.4
		c-0.2-1.4,0.4-1.8,3.2-2.5c0.3-0.1,0.6-0.1,0.9-0.2c6.3-1.6,12-4.2,16.8-7.5c0.2,0.6,0.5,1.1,0.8,1.7c1.9,3.8,3,8.1,6,11.2
		c1.2,1.3,2.6,2.5,3.9,3.6c0.5,0.4,1,0.9,1.4,1.3c3.5,3.1,7.1,6.4,10.9,9.6c4.8,4.1,9.2,5.9,14.4,5.9c2.5,0,5-0.2,7.4-0.6
		c2.5-0.4,5.1-1.4,7.6-2.8c4.8-2.8,8.9-6.5,12.2-11c0.3-0.4,0.6-0.9,0.8-1.3c0.2-0.3,0.4-0.6,0.5-0.9c0.4-0.5,0.9-1.6,1.6-4.6
		c0.5,0.7,1.1,1.3,1.8,2c1.7,1.7,3.3,3.3,5,4.9c0.6,0.6,1.2,1.2,1.9,1.8c3,2.8,6,5.7,9.5,7.8c4.3,2.6,9,4,13.9,3.9
		c6-0.1,11.9-2.1,17.1-6c0.5-0.4,1.3-1,1.8-1.8c1.4-2.3,0.5-5.1-0.9-7c-0.4-0.6-0.8-1.2-1.2-1.8c-0.6-0.9-1.2-1.9-2-2.8
		c-1-1.2-2.1-2.2-3.3-3.2c-0.4-0.4-0.9-0.8-1.3-1.2c-1.9-1.8-3.9-3.6-5.9-5.4c-0.3-0.3-0.6-0.6-1-1c-1.2-1.2-2.7-2.8-4.4-3.2
		c0.6-0.6,1.2-1,1.6-1c0.3,0,1,0.1,2,0.6c0.4,0.2,0.8,0.4,1.2,0.5c0.4,0.2,0.7,0.4,1,0.7c1.1,1.1,2.4,1.7,3.8,1.7
		c1.3,0,3.2-0.5,4.7-2.9c0.2-0.1,0.3-0.3,0.5-0.4c0.3,1,0.7,2.1,1.3,3.2c0.5,1.1,0.9,2,1.1,2.9l0,0.2c0.2,0.5,0.4,0.9,0.7,1.2
		c0.1,0.2,0.5,0.8,1,1.9c1.3,2.5,2.2,4.1,3,5l0.5,0.4c3.9,3.9,8.1,7.4,12.2,10.9c2.1,1.8,4.3,3.6,6.4,5.5c3.8,3.4,9.5,3.7,11.8,3.7
		c2.5,0,5-0.2,7.4-0.6c5.7-1,11.9-4.8,17-10.4c0.5-0.6,1-1.2,1.5-1.9c0.8,0.7,1.7,1.5,2.5,2.3c0.6,0.6,1.2,1.2,1.8,1.8
		c0.6,0.5,1.2,1.1,1.8,1.7c1.4,1.4,2.8,2.8,4.4,3.8c1.8,1.1,3.8,1.2,5.7,1.2c0.4,0,0.8,0,1.3,0.1c3.9,0.3,7.9,0.2,11.8-0.4
		c0.7-0.1,2.5-0.3,3.3-1.8c0.6-1.1,0.4-2.2,0.2-3c-0.1-0.3-0.1-0.7-0.1-0.9c0-0.8,1.1-1.6,2.1-2c0,0,0,0,0,0
		c0.1,0.1,0.2,0.2,0.3,0.2c0.1,0.1,0.3,0.3,0.4,0.4c0.9,0.8,1.8,1.6,2.6,2.4c0.4,0.4,0.8,0.7,1.2,1.1c1.2,1.1,2.4,2.2,3.7,3.2
		c1.9,1.5,4.3,1.7,5.8,1.7c1.4,0,2.9-0.1,4.2-0.2c0.9-0.1,1.8-0.2,2.5-0.2h0.3c2.8,0,8.6,0,9.3-4.6c0.2-1.2-0.1-2.2-0.4-3.1
		c-0.2-0.6-0.4-1.3-0.5-1.9c0.3,0.3,0.6,0.5,0.9,0.8l6.9,6.4c0.7,0.6,1.6,1.4,2.7,1.8c0.9,0.4,1.9,0.4,2.7,0.4h0.8
		c1,0,1.9,0,2.7,0.2c0.2,0,0.4,0.1,0.6,0.1c0.5,0.1,1.1,0.2,1.7,0.3c0.7,0,1.3,0,1.8-0.1c0.2,0,0.5-0.1,0.7-0.1c0.7-0.1,1.5,0,2.3,0
		c0.6,0,1.2,0.1,1.9,0.1c2.2,0,3.9-0.7,5-1.9c0.8-0.9,1.3-2.2,1.4-3.7c0-0.2,0-0.4,0-0.6l4.8,4.4c0.4,0.4,0.9,0.8,1.5,1.1
		c1.1,0.6,2.2,0.5,3.1,0.5c0.2,0,0.4,0,0.6,0c0.5,0,1.1,0.1,1.7,0.2c0.4,0.1,0.9,0.1,1.3,0.2l1.7,0.1c0.7,0.1,1.4,0.1,2.1,0.1
		c0.7,0,1.3,0,2,0c1.3,0,2.7,0,4.3-0.2c1-0.1,2-0.1,3-0.4c1.3-0.3,2.3-0.8,3.2-1.6c1-0.9,1.7-2.2,1.9-3.4c0.1-1-0.1-1.9-0.5-3.1
		c-0.5-1.3-1.3-2.5-2-3.6c-0.4-0.6-0.7-1.2-1.1-1.8c-1.1-2-1.9-3.7-2.5-5.4c-1.3-4-0.1-6.7,2.1-10.2c0.6-1.1,0.9-1.6,1-1.8
		c0,0,0.1-0.1,0.1-0.1c1.7-1.3,2.8-3,3.3-4.8c0.4-1.6,0.7-3.4,0.7-5.1l0.1-1.8C386,48.1,385.9,47,385.7,46z"/>
	<g id="text">
		<g>
			<path class="st1" d="M45.8,32.2c3.6-0.2,5.9-1,6.9-2.5c0.6-0.9,0.9-1.7,0.8-2.4c-0.1-1.7-1.9-2.8-3.4-3.2
				c-1.3-0.4-2.8-0.4-4.1-0.2c-1,0.1-2,0.3-2.6,1.1c-1,1.3-0.3,3.1-0.3,4.5C43,31.5,43.8,32.3,45.8,32.2z M29.2,77
				c-0.2,0-0.4,0-0.6-0.1c-4.1-0.8-4.5-5.9-4.9-9.2c-0.3-2.2-0.6-4.4-1.1-6.6c-1-5.1-1.7-10.3-2.1-15.5c-0.4-5-1-9.6-1.7-13.7
				c-0.8-4.5-1.2-9.1-1.7-13.6c-0.4-3.4-0.2-7.4,2.8-9.6c1.8-1.3,3.9-1.8,6.1-2.2c4.8-0.9,9.7-1.2,14.6-1.4c0.7,0,1.8-0.2,3.4-0.5
				c0,0,5.2-0.3,5.2-0.3c4.2-0.2,8,1.4,12.1,1.7c2,0.1,3.5,1.9,5,3c1.5,1.1,3.3,1.3,4.6,2.7c0.9,1,1.9,2.2,3,3.5
				c1.1,1.3,1.8,2.6,2.3,4c3.2,9,2.9,17.6-3.7,25c-5.4,6-13.2,9.4-20.9,11.4c-2.6,0.7-5.6,1-5.2,4.3c0.3,2.4,0.9,4.7,1.9,6.9
				c1,2,0.8,3.2-0.4,5.1c-0.7,1-1.6,1.9-2.7,2.5c-3.9,2.7-10.3,2.4-14.9,2.5C30,77,29.6,77,29.2,77z"/>
			<path d="M29.8,78.5c-0.2,0-0.4,0-0.7,0l0,0c-0.3,0-0.5,0-0.8-0.1c-5-1-5.6-6.7-6-10.1l0-0.4c-0.3-2.2-0.6-4.3-1.1-6.5
				c-1-5.2-1.7-10.5-2.1-15.7c-0.4-5-1-9.5-1.7-13.6c-0.6-3.3-1-6.7-1.3-9.9c-0.1-1.3-0.3-2.5-0.4-3.8c-0.6-5.3,0.5-8.9,3.5-10.9
				c2.1-1.5,4.5-2,6.7-2.4c4.8-0.9,9.6-1.2,14.8-1.4c0.4,0,1.3-0.1,3.1-0.5l0.2,0c5.3-0.3,5.3-0.3,5.3-0.3c2.5-0.1,4.9,0.4,7.3,0.9
				c1.7,0.4,3.3,0.7,4.9,0.8c2,0.1,3.4,1.3,4.7,2.4c0.4,0.3,0.7,0.6,1.1,0.9c0.5,0.3,1.1,0.6,1.7,0.9c1,0.5,2.2,1,3.2,2.1
				c1,1.1,2,2.3,3.1,3.6c1.2,1.4,2,2.9,2.5,4.4c3.7,10.5,2.4,19.4-4,26.5c-4.8,5.4-12.1,9.4-21.6,11.9c-0.3,0.1-0.6,0.1-0.9,0.2
				c-2.9,0.7-3.4,1.1-3.2,2.5c0.2,2.2,0.8,4.4,1.8,6.4c1.2,2.5,1,4.2-0.4,6.6c-0.8,1.2-1.9,2.2-3.2,3c-3.7,2.5-9.2,2.6-13.6,2.7
				c-0.7,0-1.4,0-2,0.1C30.3,78.5,30,78.5,29.8,78.5z M44.2,6.1c-1.6,0.3-2.7,0.5-3.5,0.5C35.6,6.8,31,7.1,26.3,8
				c-1.8,0.3-3.9,0.8-5.5,1.9c-2,1.4-2.7,4.1-2.2,8.2c0.1,1.3,0.3,2.5,0.4,3.8c0.3,3.2,0.7,6.5,1.3,9.7c0.8,4.1,1.3,8.8,1.8,13.9
				c0.4,5.1,1,10.3,2,15.3c0.5,2.2,0.9,4.5,1.1,6.7l0,0.4c0.4,3.7,1,7,3.6,7.5c0.1,0,0.3,0,0.4,0.1h0c0.4,0,0.7,0,1.1,0
				c0.7,0,1.4,0,2.1-0.1c4-0.1,9.1-0.2,12.1-2.2c1-0.6,1.7-1.3,2.3-2.1c0.9-1.5,1-2.1,0.2-3.6C46,65.1,45.3,62.6,45,60
				c-0.5-4.3,3.3-5.2,5.5-5.7c0.3-0.1,0.5-0.1,0.8-0.2c8.9-2.3,15.7-6,20.1-11c5.6-6.3,6.7-14,3.4-23.5c-0.4-1.2-1.1-2.4-2-3.5
				c-1-1.3-2-2.4-3-3.4c-0.5-0.6-1.3-1-2.2-1.4c-0.7-0.3-1.4-0.7-2.1-1.2c-0.4-0.3-0.8-0.6-1.3-1c-1-0.8-2-1.6-3-1.7
				c-1.8-0.1-3.6-0.5-5.3-0.9c-2.2-0.5-4.4-0.9-6.6-0.8L44.2,6.1z M45.5,33.7c-0.9,0-2-0.2-2.8-1c-1-0.9-1.1-2.3-1.1-3.2
				c0-0.3,0-0.7-0.1-1.1c-0.1-1.3-0.3-3,0.8-4.4c1-1.2,2.5-1.5,3.7-1.7c1.2-0.1,3-0.3,4.7,0.2c2.1,0.6,4.4,2.3,4.5,4.6
				c0,1-0.3,2-1,3.2c-1.3,2-3.9,3.1-8.1,3.2l0,0C45.7,33.7,45.6,33.7,45.5,33.7z M47.7,25.2c-0.5,0-1,0-1.6,0.1
				c-0.3,0-1.3,0.2-1.6,0.5c-0.3,0.4-0.2,1.3-0.1,2.2c0.1,0.5,0.1,1,0.1,1.4c0,0.9,0.2,1.1,0.2,1.1c0,0,0.2,0.2,1,0.1l0,0
				c3.8-0.2,5.2-1.1,5.7-1.8c0.5-0.9,0.6-1.3,0.6-1.5c0-0.8-1.2-1.6-2.3-1.9C49.1,25.3,48.5,25.2,47.7,25.2z"/>
		</g>
		<g>
			<path class="st1" d="M108.2,60.3C108.3,60.3,108.3,60.3,108.2,60.3c1.9,0.1,3.8-0.6,5-2c1.4-1.5,2-3.5,2.4-5.5
				c0.5-2.4,0.7-4.9,0-7.2c-0.8-2.7-3.2-4.9-6.1-5c-3.2-0.1-5.3,2.8-6.3,5.6c-1.1,3.4-1.9,8.3,0.3,11.3
				C104.7,59.2,106.4,60.2,108.2,60.3z M106.3,81.4c-3.3,0-6.5-0.8-9.6-2.4c-0.5-0.3-1-0.7-1.4-1.2c-0.4-0.5-1.5-1.4-3.3-2.8
				c-1.6-1.2-3.1-2.4-4.5-3.7c-2.2-2.1-3.5-5.2-4.6-7.9c-1.8-4.6-2.7-8.1-2.5-13.2c0.5-2.2,0.9-4.4,1.1-6.6
				c0.7-5.8,3.7-10.2,7.3-14.7c7.2-8.8,19.6-10.9,29.9-7.2c4.6,1.7,8.7,4.5,11.7,8.4c3.6,4.7,6.4,11.5,6.4,17.4
				c0,4.5-0.2,7.4-0.7,8.7c-0.3,0.8-0.6,2.4-1.1,4.7c-1.5,7.6-8.1,13.5-14.5,17.3c-2.3,1.3-4.7,2.2-7.1,2.6S108.7,81.4,106.3,81.4z"
				/>
			<path d="M106.3,82.9c-3.6,0-7-0.9-10.3-2.6c-0.7-0.4-1.3-0.9-1.9-1.5c-0.2-0.2-0.9-0.9-3.1-2.6c-1.6-1.2-3.2-2.5-4.6-3.8
				c-2.5-2.3-3.9-5.9-5-8.5c-1.7-4.5-2.8-8.3-2.6-13.8l0-0.3c0.5-2.1,0.8-4.3,1.1-6.5c0.7-5.9,3.6-10.5,7.6-15.4
				c7.2-8.8,19.9-11.9,31.6-7.6c5,1.8,9.3,4.9,12.3,8.9c4.1,5.3,6.7,12.5,6.7,18.3c0,4.7-0.2,7.7-0.8,9.2c-0.3,0.7-0.6,2.3-1.1,4.5
				c-1.8,9.2-10.3,15.4-15.2,18.3c-2.5,1.4-5,2.3-7.6,2.8C111.3,82.7,108.8,82.9,106.3,82.9z M81.9,50.4c-0.2,4.9,0.8,8.3,2.4,12.4
				c1,2.4,2.2,5.5,4.2,7.4c1.4,1.3,2.9,2.5,4.4,3.6c2.5,2,3.2,2.7,3.5,3c0.3,0.4,0.7,0.7,1,0.9c2.8,1.5,5.8,2.2,8.8,2.2
				c2.3,0,4.6-0.2,6.9-0.6c2.2-0.4,4.4-1.2,6.6-2.4c4.4-2.6,12.1-8.2,13.7-16.3c0.5-2.5,0.9-4.1,1.2-4.9c0.3-0.8,0.6-2.9,0.6-8.2
				c0-5.2-2.4-11.6-6.1-16.5c-2.7-3.5-6.6-6.3-11-7.9C107.7,19.3,96.4,22,90,29.9c-3.7,4.6-6.3,8.7-7,13.9
				C82.8,46,82.4,48.2,81.9,50.4z M108.7,61.8c-0.2,0-0.3,0-0.5,0l0,0c-2.3-0.2-4.4-1.4-5.8-3.2c-3-4.1-1.4-10.3-0.5-12.7
				c1.4-4.2,4.4-6.7,7.8-6.6c3.4,0.1,6.5,2.6,7.5,6.1c0.9,2.9,0.4,5.9,0,7.9c-0.4,1.9-1,4.4-2.8,6.2
				C112.9,60.9,110.8,61.8,108.7,61.8z M108.4,58.8c1.4,0.1,2.9-0.5,3.8-1.5c1.2-1.3,1.7-3.2,2-4.7c0.3-1.7,0.7-4.2,0-6.4
				c-0.7-2.2-2.6-3.9-4.7-3.9c0,0-0.1,0-0.1,0c-3,0-4.4,3.5-4.8,4.6c-0.5,1.6-2.1,6.9,0.1,10C105.6,57.9,107,58.7,108.4,58.8
				L108.4,58.8z"/>
		</g>
		<g>
			<path class="st1" d="M168.5,80.6c-5.1,0-10.2-1.5-14.8-4.8c-6.5-4.6-9.1-11.1-11.1-18.5c-0.2-1.2-0.3-2-0.3-2.3
				c0.1-3.7,0.4-6.2,0.8-7.7c0.5-1.3,0.9-2.5,1.1-3.3c0.2-0.9,0.5-1.7,1.1-2.4c7.9-10.9,21-17.5,34-11.4c1,0.2,1.9,0.6,2.8,1
				c1.9,1,3.4,2.4,4.5,4.1c0.3,0.4,0.7,0.9,1.1,1.2c1,0.9,1.4,1.7,1.4,2.5c0,0.8-0.7,1.9-2.2,3.2c-1.5,1.3-3.5,3.1-6.2,5.3
				c-1.8,1.6-2.4,3.1-5.1,1.9c-3.1-1.4-5.9-4.9-9.1-1.7c-2.3,1.8-5,4.5-4.8,7.7c0.1,3.3,3.6,6.3,6.5,7.4c1.3,0.5,2.5,0.3,3.7-0.4
				c1.4-0.9,2.9-1.6,4.5-2.2c0.3-0.1,0.7-0.2,1-0.2c0.8,0,1.6,0.4,2.4,1.3c0,0,0.7,0.7,0.7,0.7c1.9,1.6,3.4,4.2,4.8,6.2
				c1.1,1.5,1.9,3.7,0.9,5.3c-0.4,0.6-0.9,1-1.4,1.4C179.8,78.5,174.2,80.5,168.5,80.6z"/>
			<path d="M168.3,82.1c-5.5,0-10.9-1.8-15.5-5.1c-6.6-4.7-9.4-11.1-11.7-19.3l0-0.2c-0.2-1.7-0.3-2.2-0.3-2.4l0-0.1l0-0.1
				c0.1-3.8,0.4-6.4,0.8-8l0.1-0.2c0.5-1.3,0.8-2.3,1-3.1c0.2-1.1,0.7-2.1,1.3-3c9.4-12.9,23.4-17.6,35.7-12c1.1,0.2,2.1,0.6,3,1.1
				c2.1,1.1,3.8,2.7,5,4.6c0.2,0.3,0.5,0.6,0.8,0.9c1.3,1.2,2,2.4,2,3.6c0,1.3-0.9,2.7-2.7,4.3c-1.5,1.3-3.5,3.1-6.2,5.3
				c-0.3,0.3-0.6,0.6-0.9,0.8c-1.2,1.2-2.7,2.6-5.7,1.3c-0.9-0.4-1.7-0.9-2.5-1.4c-2.5-1.6-3.5-2-5-0.6l-0.1,0.1
				c-2.9,2.3-4.3,4.4-4.3,6.4c0.1,2.5,3,5.1,5.6,6.1c0.8,0.3,1.5,0.2,2.4-0.3c1.5-0.9,3.1-1.7,4.7-2.3c1.7-0.7,3.5-0.2,5.1,1.5
				l0.6,0.6c1.5,1.3,2.7,3,3.8,4.7c0.4,0.6,0.8,1.2,1.2,1.7c1.4,1.9,2.4,4.7,0.9,7c-0.5,0.8-1.3,1.4-1.8,1.8c-5.1,3.9-11.1,6-17.1,6
				l0,0C168.4,82.1,168.4,82.1,168.3,82.1z M144,57c2.1,7.7,4.7,13.4,10.5,17.6c4.2,3,9,4.6,13.9,4.5l0,0c5.4,0,10.7-1.9,15.3-5.4
				c0.5-0.4,0.9-0.7,1.1-1c0.6-0.9,0-2.5-0.8-3.6c-0.4-0.6-0.9-1.2-1.3-1.8c-1-1.5-2.1-3.1-3.3-4.1l0,0c-0.1-0.1-0.4-0.3-0.8-0.8
				c-0.4-0.4-0.9-0.9-1.4-0.9c-0.1,0-0.3,0-0.4,0.1c-1.5,0.6-2.9,1.3-4.3,2.1c-1.6,1-3.4,1.1-5,0.5c-3.6-1.4-7.3-4.8-7.5-8.8
				c-0.1-3,1.7-6,5.3-8.9c3.2-3.2,6.3-1.2,8.6,0.2c0.7,0.5,1.4,0.9,2.1,1.2c1.2,0.5,1.3,0.4,2.4-0.7c0.3-0.3,0.7-0.7,1.1-1
				c2.7-2.3,4.7-4,6.2-5.3c1.6-1.4,1.7-2,1.7-2c0-0.1-0.1-0.6-0.9-1.3c-0.5-0.4-1-1-1.4-1.5c-1-1.6-2.3-2.8-3.9-3.6
				c-0.8-0.4-1.6-0.7-2.4-0.9l-0.3-0.1c-13.3-6.2-25.6,2-32.1,10.9c-0.4,0.6-0.7,1.2-0.8,1.8c-0.2,1-0.6,2.1-1.1,3.5
				c-0.3,1.4-0.6,3.8-0.7,7.2C143.8,55.2,143.9,55.7,144,57z"/>
		</g>
		<g>
			<path class="st1" d="M222.2,60.3c2.1-0.2,4.5-0.8,5.8-2.7c0.3-0.5,0.5-1.1,0.7-1.7c0.6-1.8,1.2-3.5,1.3-5.4
				c0.2-2.4-0.1-5.3-1.6-7.3c-1.2-1.6-2.8-2.5-4.7-2.5c-1.1,0-2.3,0.4-3.5,1.1c-1.2,0.7-1.9,1.6-2.3,2.5c-2.2,5.6-3.2,11.6,2.1,15.6
				C220.5,60.2,221.2,60.3,222.2,60.3z M220.2,81.4c-3.3,0-6.5-0.8-9.6-2.4c-0.5-0.3-1-0.7-1.4-1.2c-0.4-0.5-1.5-1.4-3.3-2.8
				c-1.6-1.2-3.1-2.4-4.5-3.7c-3.1-2.9-3.8-7.2-5.6-10.8c-1.1-2.3-1.7-4.2-1.7-5.7c0-0.5,0-1.1,0.1-1.6l0.1-3
				c0.5-2.2,0.9-4.4,1.1-6.6c0.3-2,1.1-4.5,2.5-7.3c0.4-0.9,0.8-1.8,1.2-2.7c0.3-0.7,0.6-1.3,1.1-1.6c2.8-3.4,5.5-6.3,9.4-8.7
				c1.4-0.9,2.9-1.6,4.4-2.1c1.3-0.4,2.6-0.7,3.9-0.9c5.5-0.8,9.8,0.8,15,1.5c3.5,0.5,8.5,4.7,10.8,7.3c1.6,1.8,2.5,3.4,2.9,4.9
				c0.2,0.7,0.5,1.4,1,2.1c0.9,1.2,1.6,3.2,2.3,6c0.5,1.8,0.8,3.6,0.8,5.4c0,8.4-1.3,17-7.2,23.4c-4.2,4.5-10,8.8-16.2,9.9
				C225,81.2,222.6,81.4,220.2,81.4z"/>
			<path d="M220.2,82.9c-3.6,0-7-0.9-10.3-2.6c-0.7-0.4-1.3-0.9-1.9-1.5c-0.2-0.2-0.9-0.9-3.1-2.6c-1.6-1.2-3.2-2.5-4.6-3.8
				c-2.4-2.2-3.5-5.1-4.6-7.8c-0.5-1.2-0.9-2.3-1.4-3.4c-1.2-2.5-1.8-4.6-1.8-6.4c0-0.6,0-1.2,0.1-1.8l0.1-3.1
				c0.5-2.1,0.8-4.3,1.1-6.5c0.3-2.2,1.2-4.8,2.6-7.8c0.4-0.9,0.8-1.8,1.2-2.6c0.3-0.9,0.8-1.7,1.5-2.1c2.9-3.6,5.7-6.5,9.6-8.8
				c1.6-1,3.2-1.7,4.7-2.2c1.3-0.4,2.6-0.8,4.1-1c4.2-0.6,7.7,0.1,11.4,0.8c1.3,0.3,2.6,0.5,4,0.7c4,0.6,9.3,5.1,11.7,7.8
				c1.7,2,2.8,3.8,3.2,5.6c0.1,0.5,0.4,1.1,0.8,1.6c1,1.3,1.8,3.5,2.5,6.5c0.6,1.9,0.9,3.9,0.9,5.7c0,7-0.8,17-7.5,24.4
				c-5.2,5.6-11.4,9.4-17,10.4C225.2,82.7,222.7,82.9,220.2,82.9z M195.8,50.4l-0.1,3c-0.1,0.5-0.1,1-0.1,1.4c0,1.3,0.5,3,1.5,5
				c0.6,1.2,1.1,2.4,1.5,3.6c1,2.6,1.9,5,3.8,6.7c1.4,1.3,2.9,2.5,4.4,3.6c2.5,2,3.2,2.7,3.5,3c0.3,0.4,0.7,0.7,1,0.9
				c2.8,1.5,5.8,2.2,8.8,2.2c2.3,0,4.6-0.2,6.9-0.6c5-0.9,10.6-4.3,15.3-9.4c4.6-5,6.8-12.1,6.8-22.4c0-1.6-0.3-3.3-0.8-4.9l0-0.1
				c-0.7-3.3-1.5-4.8-2-5.4c-0.6-0.8-1-1.7-1.3-2.6c-0.3-1.3-1.2-2.8-2.6-4.3c-2.2-2.5-6.9-6.4-9.9-6.8c-1.4-0.2-2.8-0.5-4.2-0.8
				c-3.4-0.7-6.7-1.3-10.4-0.8c-1.3,0.2-2.5,0.5-3.6,0.9c-1.3,0.5-2.7,1.1-4.1,2c-3.6,2.2-6.2,4.9-9,8.3l-0.2,0.2l-0.2,0.1
				c-0.2,0.1-0.4,0.4-0.5,0.8l0,0.1c-0.4,0.9-0.8,1.9-1.3,2.8c-1.3,2.7-2.1,5-2.3,6.9C196.7,46,196.3,48.2,195.8,50.4z M222.2,61.8
				L222.2,61.8c-1.4,0-2.3-0.2-3.1-0.8c-6.5-4.8-4.6-12.2-2.6-17.4c0.5-1.2,1.4-2.3,2.9-3.2c1.4-0.9,2.8-1.3,4.3-1.3
				c2.4,0,4.3,1,5.9,3.1c1.9,2.5,2.1,5.9,1.9,8.3c-0.1,2.1-0.8,3.9-1.4,5.8c-0.2,0.6-0.5,1.4-0.9,2.1
				C227.9,60.4,225.7,61.5,222.2,61.8L222.2,61.8z M220.9,58.7c0,0,0.3,0.2,1.2,0.2c2.4-0.3,3.9-0.9,4.6-2.1
				c0.2-0.4,0.4-0.9,0.6-1.4c0.5-1.6,1.1-3.3,1.2-5c0.1-1.9,0-4.5-1.3-6.3c-1-1.3-2.1-1.9-3.5-1.9c-0.8,0-1.7,0.3-2.6,0.9
				c-0.9,0.6-1.5,1.1-1.7,1.7C216.7,51.7,217.2,55.9,220.9,58.7C220.9,58.7,220.9,58.7,220.9,58.7z"/>
		</g>
		<g>
			<path class="st1" d="M286.4,52.6c0.2,0,0.4,0,0.5,0c0.5-0.2,0.8-0.7,0.8-1.2c0-2.1-1.1-8.9-4.1-8.8c-0.9,0-1.7,0.6-2.3,1.3
				c-0.5,0.7-0.9,1.6-1.1,2.5c-0.6,1.8-1.1,3.7-1.4,5.5C278.7,52,284.6,52.6,286.4,52.6z M295.1,80.5c-2.1,0-4.1-0.4-5.3-1.6
				c-1.9-2.1-1.4-5.7-4.2-7.3c-1.6-0.9-3.5-0.8-5.2-0.2c-1.5,0.5-3,1.7-3,3.3c0,1.1,0.6,2.3,0.1,3.3c-0.4,0.7-1.4,0.9-2.2,1.1
				c-3.8,0.5-7.7,0.6-11.5,0.4c-3-0.2-7,0.1-8-3.5c0-0.2-0.1-0.5-0.1-0.7c0-0.3,0-0.6,0.1-1c0-0.4,0.4-2.1,1.3-5.1
				c0.2-0.7,0.5-1.3,0.8-1.9c0.3-0.8,0.6-1.6,0.9-2.4c0.5-2,1-3.9,1.4-5.9c0.5-2.1,1-4.2,1.5-6.2c0.3-0.9,0.6-1.8,1-2.7
				c0.6-1.4,1-2.6,1.1-3.5c0.2-0.8,0.9-3.3,2.3-7.4c1.5-4.4,2.8-8.9,4.1-13.3c0.4-1.3,0.9-2.7,1.9-3.7c1.1-1,2.7-1.3,4.2-1.4
				c3.4-0.1,6.9,0,10.3,0c2.7,0,5.6-0.2,7.5,2.1c0.8,0.9,1.2,2.1,1.6,3.3c2.7,8.1,5.2,16.3,7.6,24.6c1.1,3.9,2.5,7.7,3.4,11.6
				c0.9,4,1.5,8.1,2.6,12.1c0.2,0.8,0.5,1.6,0.3,2.4c-0.6,3.5-5.5,3.3-8.1,3.3C300.1,80.2,297.5,80.5,295.1,80.5z"/>
			<path d="M295.4,82c-0.1,0-0.2,0-0.4,0c-1.9,0-4.7-0.3-6.4-2.1c-1-1.1-1.5-2.6-1.9-3.8c-0.5-1.6-0.9-2.6-1.9-3.2
				c-1-0.6-2.5-0.6-4-0.1c-1,0.4-2,1.1-2.1,1.9c0,0.2,0.1,0.6,0.1,0.9c0.2,0.8,0.4,2-0.3,3.1c-0.8,1.5-2.6,1.7-3.3,1.8
				c-3.9,0.5-7.9,0.7-11.8,0.4c-0.4,0-0.7,0-1.1-0.1c-3-0.1-7-0.3-8.2-4.5l0-0.1c-0.1-0.3-0.1-0.7-0.1-1c0-0.4,0-0.8,0.1-1.2
				c0-0.4,0.3-1.5,1.4-5.3c0.3-0.8,0.5-1.5,0.8-2.1c0.3-0.7,0.6-1.5,0.8-2.2c0.5-1.9,1-3.8,1.4-5.8c0.5-2.1,1-4.2,1.6-6.3
				c0.3-1,0.7-2,1.1-2.9c0.5-1.3,0.9-2.3,1-3.1c0.1-0.6,0.5-2,2.4-7.6c1-2.9,1.9-5.9,2.7-8.8c0.5-1.5,0.9-3,1.4-4.5
				c0.4-1.4,1-3.1,2.3-4.3c1.2-1.1,3-1.7,5.2-1.8c2.8-0.1,5.7,0,8.5,0l2.4,0c2.6,0,5.9,0,8.1,2.6c1,1.2,1.5,2.7,1.9,3.8
				c2.7,8.1,5.3,16.4,7.6,24.6c0.4,1.4,0.8,2.8,1.3,4.1c0.8,2.4,1.6,5,2.2,7.5c0.3,1.5,0.6,2.9,0.9,4.4c0.5,2.5,1,5.1,1.7,7.6
				c0.3,0.9,0.6,1.9,0.4,3.1c-0.8,4.6-6.6,4.6-9.3,4.6h-0.3c-0.7,0-1.6,0.1-2.5,0.1C298.1,81.9,296.7,82,295.4,82z M283,69.5
				c1.2,0,2.4,0.3,3.4,0.8c2.1,1.2,2.8,3.2,3.3,4.9c0.3,1,0.6,2,1.2,2.7c0.7,0.7,2.1,1.1,4.2,1.2l0,0c1.3,0,2.7-0.1,3.9-0.2
				c1-0.1,1.9-0.2,2.7-0.2h0.3c2.9,0,6-0.2,6.4-2.1c0.1-0.5-0.1-1.1-0.3-1.8c-0.8-2.6-1.3-5.3-1.8-7.9c-0.3-1.4-0.6-2.9-0.9-4.3
				c-0.5-2.4-1.3-4.9-2.1-7.3c-0.5-1.4-0.9-2.8-1.3-4.2c-2.4-8.2-4.9-16.4-7.6-24.5c-0.3-1-0.7-2.1-1.3-2.8
				c-1.3-1.5-3.5-1.5-5.8-1.5l-0.6,0l-1.8,0c-2.8,0-5.6,0-8.5,0c-1.5,0-2.5,0.4-3.2,1c-0.8,0.7-1.1,1.9-1.5,3
				c-0.5,1.5-0.9,3-1.4,4.5c-0.9,2.9-1.8,5.9-2.8,8.8c-1.7,5.1-2.2,6.7-2.3,7.2c-0.2,1-0.6,2.2-1.2,3.8c-0.4,0.8-0.7,1.7-0.9,2.5
				c-0.5,2-1,4.1-1.5,6.2c-0.5,2-0.9,4-1.5,5.9c-0.3,0.9-0.6,1.8-1,2.6c-0.3,0.6-0.5,1.2-0.7,1.8c-1.1,3.8-1.2,4.5-1.2,4.7v0.2
				l-0.1,0.1c-0.1,0.2-0.1,0.4-0.1,0.6c0,0.1,0,0.2,0,0.3c0.6,1.9,2.5,2.1,5.5,2.2c0.4,0,0.8,0,1.2,0.1c3.7,0.3,7.5,0.1,11.2-0.4
				c1-0.1,1.1-0.3,1.1-0.3c0.1-0.1,0-0.7-0.1-1c-0.1-0.5-0.2-1-0.2-1.6c0.1-2.4,2.1-4,4-4.7C280.9,69.6,282,69.5,283,69.5z
				 M286.3,54.1c-1,0-3-0.2-4.6-0.3c-3.8-0.3-4.3-0.4-4.5-1.7l0-0.2l0-0.2c0.3-2.1,1-4.2,1.5-5.8c0.3-0.9,0.7-2,1.4-2.9
				c0.9-1.2,2.1-1.9,3.4-1.9c1,0,1.9,0.4,2.7,1.1c2.5,2.4,2.9,7.9,2.9,9.1c0,1.2-0.7,2.3-1.8,2.6C287.1,54,286.8,54.1,286.3,54.1
				L286.3,54.1C286.4,54.1,286.4,54.1,286.3,54.1z M280.5,50.6c1.6,0.2,4.3,0.4,5.6,0.4c0-1.8-0.8-5.5-2-6.7
				c-0.3-0.3-0.5-0.3-0.5-0.3c-0.4,0-0.8,0.3-1.1,0.7c-0.4,0.5-0.7,1.3-0.9,2C281.2,47.9,280.8,49.2,280.5,50.6z M286.6,51L286.6,51
				L286.6,51z"/>
		</g>
		<g>
			<path class="st1" d="M346.7,43.3c0.6,0,1.2,0,1.9-0.1c0.9,0,1.5-0.1,1.9-0.4c1.7-1.9,2.6-3,2.6-3.4l0-0.3c0-0.2,0-0.3-0.1-0.5
				c-0.6-1.7-1.6-3-2.9-3.9c-0.6-0.5-1.2-0.8-2-0.9c-1.3-0.2-2.9-0.3-5-0.3c-0.4,0-0.7,0.1-1,0.2c-0.3,0.1-0.5,1.9-0.7,5.3
				c0,0.4-0.1,0.7-0.1,1.1c0,0.9,0.2,1.5,0.6,1.8c0.3,0.4,1,0.7,2.1,1C344.8,43.2,345.8,43.3,346.7,43.3z M361.3,80.8
				c-2.2,0-4.4-0.3-6.6-0.4c-1-0.1-2-0.1-3.1-0.1c-1.2,0-2.8-0.2-3.1-1.6c-0.1-0.6,0-1.3,0-2c0.1-1.6-0.5-3.1-1.1-4.5
				c-0.5-1.3-2.7-9.4-4.1-9.4l-0.2,0l-0.4-0.1l-0.1,0c-0.3,0.2-0.6,0.7-0.8,1.4c-0.4,0.9-0.6,2-0.6,3.2c0,0.8-0.1,1.7-0.4,2.8
				c-0.1,2.8,1.1,7-1.2,9.2c-1.3,1.2-3.3,1.2-5,1.2c-1.7,0-3.4,0.1-5.1,0.1c-0.4,0-0.7-0.1-1.1-0.2c-1.2-0.3-2.8-0.4-4.7-0.4
				c-0.7,0-1.4,0-2.1-0.1c-1.8-0.5-2.9-2-3.3-4.5l-0.3-10.7c0-1.5,0-3.1,0.1-4.6c0.1-1.2,0.1-2.3,0.1-3.5c0-1.6-0.1-3.3-0.2-5
				c-0.1-1.3-0.2-2.6-0.2-3.9c0-1.7,0.1-3.3,0.3-5c0.2-1.9,0.3-3.9,0.3-5.9c0-0.5-0.1-1-0.2-1.5c-0.1-0.5-0.1-1-0.1-1.5
				c0-0.4,0.1-2.2,0.4-5.3c0.4-3.6,0.5-6.1,0.5-7.6c0-0.6,0-1.1,0.1-1.6c0.2-1,1.4-2.2,3.8-3.6c3.6-2.1,9.3-1.5,13.3-1.6
				c8.3-0.1,16.5,0.2,24.3,3.3c1.8,0.7,3.2,2,4.2,3.9c0.3,0.5,0.8,0.9,1.5,1.3c0.6,0.4,1,0.7,1.3,1c0.8,0.8,1.4,1.4,1.5,1.9l2.5,4.2
				c0.4,0.4,0.7,1,0.9,1.7s0.3,1.4,0.3,1.9c0,1,0.1,2,0.3,2.9c0.2,0.9,0.3,1.8,0.3,2.8l-0.1,1.7c0,1.6-0.3,3.2-0.7,4.8
				c-0.4,1.6-1.4,2.9-2.8,4.1c0,0-0.1,0.1-0.2,0.1c-0.1,0-0.5,0.8-1.3,2.1c-1.1,1.9-2.2,3.8-3.1,5.8c-0.1,0.2-0.1,0.4-0.1,0.7
				c0,0.3,0.2,1.1,0.5,2.3c0.7,3.6,1.3,5.7,1.9,6.2c0.3,0.3,0.8,1.2,1.6,2.7c0.8,1.5,1.5,2.8,2.2,4c0.5,0.8,0.8,1.7,0.8,2.6
				c0,1.3-0.6,2.3-1.7,3c-1.1,0.8-2.1,1.2-2.9,1.2c-0.6,0-1.5,0.1-2.8,0.2C363.5,80.7,362.3,80.8,361.3,80.8z"/>
			<path d="M361.3,82.3c-1.5,0-3-0.1-4.5-0.3c-0.7-0.1-1.5-0.1-2.2-0.2c-1-0.1-2-0.1-3-0.1c-2.7,0-4.2-1-4.6-2.9
				c-0.1-0.6-0.1-1.2,0-1.7c0-0.2,0-0.4,0-0.5c0-1.3-0.5-2.6-1-3.9c-0.1-0.3-0.3-0.8-0.5-1.6c-0.4-1.3-1.5-4.7-2.3-6.3
				c-0.3,0.7-0.4,1.5-0.4,2.5c0,0.9-0.1,1.9-0.4,3c0,0.6,0,1.4,0.1,2.2c0.2,2.6,0.4,5.8-1.8,7.8c-1.8,1.7-4.4,1.6-6,1.6
				c-0.9,0-1.9,0-2.8,0c-1.3,0-2.6,0.2-3.7-0.2c-1.1-0.2-2.5-0.3-4.2-0.3c-0.8,0-1.5-0.1-2.3-0.2l-0.2,0c-1.6-0.5-3.7-1.8-4.4-5.7
				l0-0.2l-0.3-10.7c0-1.6,0-3.2,0.1-4.7c0.1-1.1,0.1-2.3,0.1-3.5c0-1.6-0.1-3.2-0.2-4.9c-0.1-1.3-0.2-2.7-0.2-4.1
				c0-1.7,0.1-3.5,0.3-5.2c0.2-1.9,0.3-3.8,0.3-5.7c0-0.3-0.1-0.8-0.1-1.2c-0.1-0.6-0.1-1.1-0.1-1.7c0-0.3,0-1.2,0.4-5.4
				c0.4-3.5,0.5-6,0.5-7.5c0-0.7,0-1.3,0.1-1.8c0.3-1.5,1.7-3,4.5-4.7c3.3-1.9,7.7-1.8,11.6-1.8c0.8,0,1.6,0,2.4,0
				c7.6-0.1,16.5,0.1,24.8,3.4c2.1,0.9,3.8,2.4,5,4.5c0.1,0.2,0.4,0.5,0.8,0.7l0.1,0.1c0.7,0.4,1.2,0.8,1.6,1.2
				c0.9,0.9,1.5,1.6,1.8,2.3l2.3,4c0.5,0.6,0.9,1.3,1.2,2.3c0.2,0.9,0.3,1.6,0.3,2.3c0,0.9,0.1,1.8,0.3,2.5c0.2,1,0.3,2,0.3,3.1
				l-0.1,1.8c0,1.7-0.3,3.4-0.7,5.1c-0.5,1.8-1.6,3.5-3.3,4.8c0,0-0.1,0.1-0.1,0.1c-0.1,0.2-0.4,0.7-1,1.7c-1.1,1.9-2.1,3.8-3,5.7
				c0,0,0,0.4,0.4,1.9l0,0.1c0.8,4.5,1.4,5.3,1.4,5.4c0.3,0.2,0.7,0.8,1.9,3c0.8,1.5,1.5,2.8,2.1,3.9c0.7,1,1,2.2,1,3.4
				c0,1.8-0.8,3.3-2.4,4.3c-1.4,1-2.6,1.5-3.7,1.5c-0.6,0-1.5,0.1-2.7,0.2C363.6,82.2,362.4,82.3,361.3,82.3z M343.3,61.3h0.1
				c1.8,0,2.9,2.3,5,8.9c0.2,0.7,0.4,1.2,0.5,1.4c0.6,1.5,1.3,3.2,1.2,5.1c0,0.2,0,0.5,0,0.7c0,0.4-0.1,0.7,0,1
				c0.1,0.3,0.9,0.4,1.6,0.4c1,0,2.1,0,3.2,0.1c0.8,0.1,1.5,0.1,2.3,0.2c1.5,0.1,2.8,0.3,4.2,0.3c1,0,2.1-0.1,3.3-0.2
				c1.3-0.1,2.3-0.2,2.9-0.2c0.2,0,0.8-0.1,2-0.9l0.1-0.1c0.7-0.5,1-1,1-1.7c0-0.6-0.2-1.2-0.6-1.8c-0.7-1.2-1.4-2.5-2.2-4.1
				c-1-1.9-1.3-2.2-1.3-2.3c-0.6-0.5-1.3-1.5-2.3-7c-0.5-1.7-0.5-2.3-0.5-2.6c0-0.5,0.1-0.9,0.3-1.3c0.9-2,2-4,3.1-5.9
				c1.3-2.2,1.4-2.4,1.8-2.6l0.1,0c1.2-1,2-2,2.3-3.3c0.4-1.4,0.6-2.9,0.6-4.5l0.1-1.7c0-0.8-0.1-1.6-0.3-2.4c-0.2-1-0.3-2-0.3-3.2
				c0-0.3,0-0.7-0.2-1.5c-0.2-0.6-0.3-0.9-0.5-1l-0.2-0.1l-2.7-4.7c0,0-0.1-0.4-1.1-1.3c-0.2-0.2-0.5-0.4-1.1-0.8
				c-0.9-0.5-1.5-1.1-2-1.8c-0.9-1.6-2-2.7-3.5-3.3c-7.8-3.2-16.3-3.3-23.7-3.2c-0.8,0-1.6,0-2.5,0c-3.5-0.1-7.5-0.1-10.1,1.4
				c-2.9,1.7-3.1,2.5-3.1,2.5c-0.1,0.4-0.1,0.8-0.1,1.3c0,1.5-0.2,4.1-0.6,7.8c-0.3,3.9-0.4,4.9-0.4,5.1c0,0.4,0,0.8,0.1,1.2
				c0.1,0.5,0.2,1.1,0.2,1.6c0,2.1-0.1,4.1-0.3,6.1c-0.2,1.6-0.3,3.2-0.3,4.8c0,1.3,0.1,2.5,0.2,3.8c0.1,1.7,0.2,3.4,0.2,5.1
				c0,1.2,0,2.4-0.1,3.6c-0.1,1.5-0.1,3-0.1,4.5l0.3,10.5c0.4,2.3,1.4,2.9,2.1,3.2c0.6,0.1,1.2,0.1,1.8,0.1c2,0,3.7,0.1,5,0.4
				l0.3,0.1c0.1,0.1,0.3,0.1,0.4,0.1c0.7,0,1.4,0,2.1-0.1c1,0,2-0.1,3,0c1.6,0,3,0,3.9-0.8c1.2-1.1,1-3.3,0.8-5.4
				c-0.1-1-0.1-1.9-0.1-2.7l0-0.3c0.2-1,0.4-1.8,0.4-2.5c0-1.4,0.2-2.6,0.7-3.7c0.3-1,0.7-1.6,1.3-2.1l0.2-0.2l0.8-0.3L343.3,61.3
				L343.3,61.3z M369,48.5L369,48.5L369,48.5z M346.7,44.8c-1.1,0-2.2-0.1-3.2-0.4c-1.4-0.4-2.3-0.8-2.8-1.5c-0.6-0.6-1-1.6-1-2.8
				c0-0.4,0-0.8,0.1-1.2c0.4-5.4,0.7-6.1,1.6-6.5c0.4-0.2,1-0.3,1.6-0.3c2.1,0,3.8,0.1,5.2,0.3c1,0.1,1.9,0.5,2.7,1.2
				c1.5,1,2.7,2.5,3.4,4.5c0.1,0.3,0.2,0.7,0.2,1.1l0,0.5c0,0.6-0.3,1.3-3,4.3l-0.2,0.2c-0.6,0.5-1.5,0.7-2.6,0.7
				C348,44.8,347.3,44.8,346.7,44.8z M343.1,41.1c0,0,0.3,0.2,1.2,0.4c1.2,0.3,2.5,0.4,4,0.2l0.2,0c0.5,0,0.8-0.1,0.9-0.1
				c1.5-1.6,1.9-2.3,2.1-2.5c-0.5-1.4-1.3-2.4-2.3-3.1l-0.2-0.1c-0.3-0.3-0.7-0.5-1.2-0.5c-1.2-0.2-2.7-0.2-4.6-0.2
				c-0.1,0.6-0.2,1.8-0.4,4.1c0,0.4-0.1,0.7-0.1,0.9c0,0.6,0.1,0.7,0.1,0.7L343.1,41.1C343.1,41.1,343.1,41.1,343.1,41.1z
				 M351.6,39.2c0,0,0,0.1,0,0.1L351.6,39.2z"/>
		</g>
	</g>
</g>
</svg>
