<?xml version="1.0" encoding="utf-8"?>
<!-- Generator: Adobe Illustrator 27.0.0, SVG Export Plug-In . SVG Version: 6.00 Build 0)  -->
<svg version="1.1" id="Layer_1" xmlns="http://www.w3.org/2000/svg" xmlns:xlink="http://www.w3.org/1999/xlink" x="0px" y="0px"
	 viewBox="0 0 16 16" style="enable-background:new 0 0 16 16;" xml:space="preserve">
<path d="M8,8c2.2,0,4-1.8,4-4s-1.8-4-4-4S4,1.8,4,4S5.8,8,8,8 M10.7,4c0,1.5-1.2,2.7-2.7,2.7S5.3,5.5,5.3,4S6.5,1.3,8,1.3
	S10.7,2.5,10.7,4 M16,14.7c0,1.3-1.3,1.3-1.3,1.3H1.3c0,0-1.3,0-1.3-1.3s1.3-5.3,8-5.3S16,13.3,16,14.7 M14.7,14.7
	c0-0.3-0.2-1.3-1.1-2.2c-0.9-0.9-2.5-1.8-5.6-1.8s-4.7,0.9-5.6,1.8c-0.9,0.9-1.1,1.9-1.1,2.2H14.7z"/>
</svg>
